<svg xmlns="http://www.w3.org/2000/svg" viewBox="0 0 320 80" fill="none">
  <!-- Shield icon -->
  <path d="M10 15 L30 8 L50 15 L50 45 C50 58 30 68 30 68 C30 68 10 58 10 45 Z" fill="#D42B2B"/>
  <path d="M20 25 L30 22 L40 25 L40 42 C40 50 30 56 30 56 C30 56 20 50 20 42 Z" fill="#0a0a0a"/>
  <path d="M26 32 L30 30 L34 32 L34 40 C34 44 30 47 30 47 C30 47 26 44 26 40 Z" fill="#D42B2B"/>
  <!-- Checkered flag accent -->
  <rect x="15" y="18" width="4" height="4" fill="white" opacity="0.3"/>
  <rect x="19" y="22" width="4" height="4" fill="white" opacity="0.3"/>
  <!-- Text: AUTO FANATICS -->
  <text x="62" y="38" font-family="system-ui, -apple-system, sans-serif" font-weight="800" font-size="28" fill="#f5f5f5" letter-spacing="3">AUTO</text>
  <text x="170" y="38" font-family="system-ui, -apple-system, sans-serif" font-weight="800" font-size="28" fill="#D42B2B" letter-spacing="3">FANATICS</text>
  <text x="62" y="58" font-family="system-ui, -apple-system, sans-serif" font-weight="400" font-size="10" fill="#a0a0a0" letter-spacing="6">PREMIUM DETAILING STUDIO</text>
</svg>
