<svg xmlns="http://www.w3.org/2000/svg" viewBox="0 0 60 72" fill="none">
  <defs>
    <linearGradient id="sg" x1="0" y1="0" x2="0" y2="1">
      <stop offset="0%" stop-color="#E84444"/>
      <stop offset="100%" stop-color="#B01E1E"/>
    </linearGradient>
  </defs>
  <!-- Shield -->
  <path d="M30 2 C30 2 6 2 6 2 C3 2 1 4.5 1 7 L1 40 C1 50 14 60 30 68 C46 60 59 50 59 40 L59 7 C59 4.5 57 2 54 2 Z" fill="url(#sg)"/>
  <path d="M30 7 C30 7 11 7 11 7 C9 7 7 8.5 7 11 L7 39 C7 47 18 56 30 62 C42 56 53 47 53 39 L53 11 C53 8.5 51 7 49 7 Z" fill="#0a0a0a"/>
  <path d="M30 11 C30 11 15 11 15 11 C13.5 11 12 12.5 12 14.5 L12 38 C12 44 21 52 30 57 C39 52 48 44 48 38 L48 14.5 C48 12.5 46.5 11 45 11 Z" fill="url(#sg)" opacity="0.15"/>
  <!-- "auto" -->
  <text x="30" y="34" font-family="system-ui, -apple-system, sans-serif" font-weight="700" font-style="italic" font-size="18" fill="#ffffff" text-anchor="middle" letter-spacing="1">auto</text>
  <line x1="16" y1="39" x2="44" y2="39" stroke="#D42B2B" stroke-width="1.5"/>
  <!-- "FANATICS" -->
  <text x="30" y="52" font-family="system-ui, -apple-system, sans-serif" font-weight="900" font-size="10" fill="#f5f5f5" text-anchor="middle" letter-spacing="2">FANATICS</text>
</svg>
